<svg width="424" height="520" viewBox="0 0 424 520" fill="none" xmlns="http://www.w3.org/2000/svg">
<g id="Stallions Logo">
<path id="Stallion Outline" d="M74.5 452C74.5 452 57 413.5 54.5 402C52 390.5 54.5 367.5 54.5 367.5C54.5 367.5 68 390.5 77 402C86 413.5 95.5 425 116.5 434C137.5 443 188.5 481.5 188.5 481.5C188.5 481.5 178.5 451 176 445.5C173.5 440 161.5 416.5 161.5 416.5C161.5 416.5 172 421.5 181 432.5C190 443.5 199 459.5 199 459.5C199 459.5 191 431.5 188.5 424C186 416.5 173.5 392 173.5 392C173.5 392 193 397.5 210.5 417.5C228 437.5 240 470 240 470C240 470 240.5 444 234 427C227.5 410 220 397 220 397C220 397 240 399.5 271.5 434C303 468.5 319.5 519.5 319.5 519.5C319.5 519.5 315 470 312.5 457C310 444 298 408 298 408C298 408 312.5 411.5 319.5 417.5C326.5 423.5 342.5 441.5 342.5 441.5C342.5 441.5 339 423.5 331.5 413.5C324 403.5 305 383.5 305 383.5C305 383.5 322.735 389.224 340.5 402C353.84 411.594 365.57 425.285 367.5 427C372 431 387 456 389 459C391 462 406.5 495.5 406.5 495.5C406.5 495.5 405 471 403.5 466C402 461 400.5 453.5 396.5 444C392.5 434.5 379.5 409 374 402C368.5 395 280 277 280 277V251.5L297.5 250L316 267C316 267 318.5 283 321 290C323.5 297 335.5 309 335.5 309C335.5 309 344.5 317 356.5 316C368.5 315 367.5 308 369.5 307C371.5 306 375.5 306 379 305C382.5 304 394 297 397.5 294.5C401 292 408.5 283.5 411 278C413.5 272.5 412.5 262.5 412.5 262.5C412.5 262.5 412.5 247.5 414 246C415.5 244.5 423.5 243.5 423 238.5C422.5 233.5 418.5 225.5 415.5 221.5C412.5 217.5 401 208 401 208C401 208 381 191 377.5 188C374 185 332 140 331.5 139C331 138 332.5 133 331.5 130.5C330.5 128 303.874 103.806 290.5 90C290.5 90 299 85.5 302.5 81.5C306 77.5 306 69.5 306 69.5C306 69.5 316.5 61.9999 324 54.4999C331.5 46.9999 334.5 36.4999 334.5 36.4999C334.5 36.4999 325.5 45 318 48.5C310.5 52 301 52 301 52L294.5 48.5L304.5 31.9999L310 16L286 36.4999C273.338 29.1947 263.5 18.9999 253.5 14C243.5 8.99999 220 0.499994 192 0.999924C164 1.49985 143.5 8 143.5 8C143.5 8 166 8.49992 175.5 9.5C185 10.5001 200.5 15.4999 207.5 18.9999C214.5 22.4999 232 36.4999 232 36.4999C232 36.4999 210.5 31.9999 202 31.9999C193.5 31.9999 168.5 33.9999 157 36.4999C145.5 38.9999 124 46.9999 115.5 46.9999C107 46.9999 78.5 43.4999 78.5 43.4999L90.5 54.4999C90.5 54.4999 99 61.9999 111 63.4999C123 64.9999 143 67.9999 143 67.9999C143 67.9999 137.5 71.4999 129 72.9999C120.5 74.4999 101 73.9999 86.5 76.4999C72 78.9999 56 83.4999 50 86.9999C44 90.4999 36 97.9999 27.5 107.5C19 117 2.99999 155 2.99999 155C2.99999 155 20 136 27.5 130.5C35 125 54.5 120 54.5 120C54.5 120 35.5 141.5 27.5 155C19.5 168.5 11 194 6.99999 216.5C2.99999 239 -1.00001 259 2.99999 306.5C6.99999 354 16 365.5 27.5 392C39 418.5 74.5 452 74.5 452Z" fill="black" stroke="black"/>
<g id="Stallion Detail">
<path id="Eye" d="M274.5 130.5C270 128 271.5 120 271.5 120C271.5 120 264 126.5 269 133.5C274 140.5 285.5 139.5 285.5 139.5L284.5 131.5C284.5 131.5 279 133 274.5 130.5Z" fill="white" stroke="white"/>
<path id="Mouth" d="M336.5 233L317.5 245L362.5 290L356 250.5L336.5 233Z" fill="white" stroke="white"/>
<path id="Ear" d="M260.5 62C253.5 67.5 247 78.5 247 78.5L250 90C250 90 265.5 81.5 270 77C274.5 72.5 280.5 52.5 280.5 52.5C280.5 52.5 267.5 56.5 260.5 62Z" fill="white" stroke="white"/>
<path id="Cheek Muscle" d="M266 156C264.714 153 247 133 247 133C247 133 248.5 138.5 248.5 140C248.5 141.5 259.5 154 261 159C262.5 164 258.5 171.5 258.5 171.5L259.5 196.5C259.5 196.5 267.286 159 266 156Z" fill="white" stroke="white" stroke-width="0.5" stroke-linecap="round"/>
<path id="Under Eye" d="M286.5 155.5C282.5 157.5 281 165.5 281 165.5C280 161 283 152 283 152C283 152 292 150 297.5 152C297.5 152 290.5 153.5 286.5 155.5Z" fill="white" stroke="white" stroke-linecap="round"/>
<path id="Nose" d="M383.5 237.5C381.5 239.5 381.5 249.5 381.5 249.5L375 243C375 243 376.773 236 381.5 232C386.227 228 391.5 230.5 391.5 230.5L393 238.5C393 238.5 385.5 235.5 383.5 237.5Z" fill="white" stroke="white" stroke-linecap="round"/>
<path id="Hair Outline" d="M284.5 36C284.5 36 262.5 43.5 257.5 46C252.5 48.5 237.5 61.5 234.5 62.5C231.5 63.5 223.5 62 215.5 64C207.5 66 194.5 73 182.5 81C170.5 89 147 117 145.5 116.5C144 116 151.5 92 150 91.5C148.5 91 131.5 121 125.5 134.5C119.5 148 110.5 192.5 109 193C107.5 193.5 103.5 162 102 162C100.5 162 92 195 95.5 219C99 243 118.5 274 117.5 275.5C116.5 277 95 261 94 263C93 265 103.5 289.5 115.5 301C127.5 312.5 151 331 151 331C151 331 181 354.5 188.5 360.5C196 366.5 220.5 397 220.5 397" stroke="white" stroke-width="5" stroke-linecap="round"/>
<path id="Hair Detail" d="M84.5 306C84.5 306 71.7402 283.083 65 255.5C58.2394 227.834 56 193 58 192C60 191 69.5 215.5 70.5 214.5C71.5 213.5 64.5 165.5 65.5 158C66.5 150.5 77 116.5 79.5 116.5C82 116.5 77.6003 148.794 78 149C78.2126 149.109 82.1726 138.729 89 127C95.0144 116.668 105.97 105.84 106.5 105.5" stroke="white" stroke-width="3" stroke-linecap="round"/>
<path id="Neck" d="M166.5 163C165 170.5 164.5 208 162 208C159.5 208 155.5 182.5 153.5 182.5C151.5 182.5 149.5 208 152.5 216.5C155.5 225 178.5 251.5 179.5 251C180.5 250.5 173.5 229 173 223.5C172.5 218 174 203.5 175 203.5C176 203.5 190 235.5 192.5 240C195 244.5 208.5 255.5 212.5 257C216.5 258.5 251.5 268.5 256 271.5C260.5 274.5 284.5 316 292 325C299.5 334 331.5 368.5 331.5 368.5C331.5 368.5 371.5 409.5 379.5 423C387.5 436.5 405 474 407.5 474C410 474 396.5 438 387.5 420.5C378.5 403 350.5 367 345.5 361.5C340.5 356 288.789 288.28 285.5 282C280 271.5 279 253 279 253C279 253 249 250.5 244.5 249C240 247.5 220 240.5 212.5 235.5C205 230.5 190 208 188.5 203.5C187 199 187 179.5 186 174.5C185 169.5 181 157 181 154C181 151 199 128.5 198 127.5C197 126.5 179.5 144 179.5 144C179.5 144 179.5 135.5 178 135.5C176.5 135.5 168 155.5 166.5 163Z" fill="white" stroke="white" stroke-width="3" stroke-linecap="round"/>
<path id="Large Hair Detail" d="M108.5 396.5C108.5 396.5 79 362 73 352C67 342 52.5 311.5 50 300.5C47.5 289.5 41.5 256.5 41.5 256.5C41.5 256.5 36.5 271 35.5 275.5C34.5 280 32 300.5 32 300.5C32 300.5 20 254 18 236C16 218 18.5 173 18.5 173C18.5 173 18.5 168.5 26.5 155.5C34.5 142.5 40 136.5 40 136.5C40 136.5 32.6394 158.657 28.5 182C25.9313 196.486 24.6171 213.235 25 223C26 248.5 30.5 265.5 30.5 265.5C30.5 265.5 36 252 38.5 247.5C41 243 46.5 235 46.5 235C46.5 235 50.5 262.5 52.5 275.5C54.5 288.5 58 301 61 310C64 319 71.5 335.5 79 347.5C86.5 359.5 99.5 375 99.5 375L102.5 338.5C102.5 338.5 160 378 169 386C173.802 390.269 181.003 404.01 185.5 414.5C189.431 423.669 191 430 191 430C191 430 171 396 161 388C151 380 107.5 349.5 107.5 349.5L108.5 396.5Z" fill="white"/>
</g>
</g>
</svg>
