<svg width="662" height="540" viewBox="0 0 662 540" fill="none" xmlns="http://www.w3.org/2000/svg">
<path d="M23.8635 84.9012L106.795 63.3577L114.148 91.1704C112.471 91.9477 110.991 92.3322 109.707 92.324L98.4236 72.0663L73.4601 78.5511L95.3154 162.683L107.749 160.734C108.381 161.851 108.765 163.331 108.902 165.175C103.799 166.244 97.6873 167.704 90.5663 169.554C85.0456 170.988 78.9455 172.658 72.2661 174.564C71.4119 173.248 71.0378 171.808 71.1438 170.243L81.9312 165.903C81.4614 162.78 80.4055 158.058 78.7635 151.737L60.6184 81.8871L35.4149 88.4343L35.4172 111.623C34.3001 112.254 32.8199 112.639 30.9766 112.776L23.8635 84.9012ZM114.39 80.2178C113.018 74.9371 111.879 71.0477 110.974 68.5497L101.181 69.8126C100.549 68.6955 100.154 67.1753 99.9964 65.2519C105.253 63.4593 111.876 60.8421 119.865 57.4003C120.792 58.0133 121.4 58.7095 121.688 59.4888C121.829 61.673 123.312 68.2059 126.139 79.0874L132.031 101.771C135.832 92.0713 141.893 86.1409 150.214 83.9793C155.175 82.6906 159.738 82.8292 163.902 84.395C168.067 85.9608 170.929 89.7442 172.488 95.745L183.681 138.831L193.87 138.106C194.522 139.303 194.938 140.903 195.117 142.907C190.014 143.976 184.862 145.186 179.661 146.537C175.981 147.493 170.801 148.924 164.121 150.83C163.246 149.435 162.841 147.875 162.905 146.15L172.044 142.366C171.221 137.883 170.061 132.76 168.564 127L162.765 104.676C161.31 99.0757 159.541 95.2222 157.456 93.116C155.452 90.989 152.609 90.4035 148.929 91.3596C145.888 92.1495 142.979 94.101 140.2 97.2143C137.502 100.307 135.423 104.306 133.964 109.212L144.315 149.057L154.504 148.332C155.157 149.529 155.572 151.129 155.751 153.133C150.648 154.202 145.496 155.412 140.296 156.763C136.615 157.719 131.435 159.15 124.756 161.056C123.881 159.661 123.476 158.101 123.54 156.376L132.678 152.593C131.855 148.109 130.695 142.986 129.199 137.226L114.39 80.2178ZM230.857 96.9809L193.172 106.771C197.752 127.36 206.523 135.972 219.485 132.605C225.006 131.171 230.013 127.265 234.505 120.888C235.893 121.296 237.135 122.297 238.232 123.891C234.312 131.486 228.111 136.385 219.63 138.588C200.107 143.66 187.363 134.714 181.398 111.751C178.571 100.869 179.259 91.68 183.461 84.1826C187.642 76.6053 193.573 71.8189 201.254 69.8236C209.655 67.6412 216.455 68.9923 221.653 73.877C226.851 78.7618 230.665 85.8848 233.097 95.2461C232.463 96.094 231.717 96.6723 230.857 96.9809ZM202.261 74.6866C198.101 75.7674 195.101 78.8527 193.263 83.9423C191.505 89.0111 191.179 94.9892 192.285 101.876L207.167 98.0104C213.088 96.4723 217.235 95.0107 219.608 93.6255C217.904 87.0646 215.532 82.0436 212.493 78.5627C209.432 75.0018 206.022 73.7097 202.261 74.6866Z" fill="black"/>
<path d="M40.261 399.957C49.8117 406.543 63.232 409.837 80.522 409.837C92.2133 409.837 100.941 406.461 106.704 399.71C112.632 392.958 115.596 384.89 115.596 375.504C115.596 370.564 115.184 366.447 114.361 363.154C113.538 359.696 111.726 355.826 108.927 351.545C106.292 347.263 102.011 342.982 96.083 338.701C90.155 334.419 82.4157 329.891 72.865 325.116C61.6677 319.517 52.611 314.248 45.695 309.308C38.779 304.368 33.592 299.263 30.134 293.994C26.676 288.724 24.3707 283.702 23.218 278.927C22.0653 274.151 21.489 268.223 21.489 261.143C21.489 246.652 27.2523 235.455 38.779 227.551C50.4703 219.482 64.22 215.448 80.028 215.448C99.6233 215.448 118.56 220.388 136.838 230.268V277.692C131.239 278.68 126.546 278.68 122.759 277.692L114.855 234.961C104.316 229.197 92.5427 226.316 79.534 226.316C70.8067 226.316 63.3967 228.95 57.304 234.22C51.376 239.324 48.412 246.57 48.412 255.956C48.412 261.225 48.7413 265.342 49.4 268.306C50.0587 271.27 51.7053 274.81 54.34 278.927C56.9747 282.879 61.3383 286.913 67.431 291.03C73.5237 294.982 81.6747 299.428 91.884 304.368C127.123 321.493 144.742 341.912 144.742 365.624C144.742 382.42 138.32 396.005 125.476 406.379C112.632 416.753 95.836 421.94 75.088 421.94C54.5047 421.94 35.568 417.082 18.278 407.367V359.943C23.8767 358.955 28.5697 358.955 32.357 359.943L40.261 399.957ZM192.245 255.462V290.783H227.072C227.401 292.759 227.566 294.241 227.566 295.229C227.566 296.711 227.401 298.44 227.072 300.416L192.245 305.603V373.528C192.245 385.713 193.315 394.358 195.456 399.463C197.761 404.403 201.302 406.873 206.077 406.873C210.358 406.873 217.027 405.144 226.084 401.686C227.731 403.168 228.883 405.967 229.542 410.084C224.602 413.048 220.815 415.271 218.18 416.753C215.71 418.07 212.499 419.223 208.547 420.211C204.76 421.363 200.725 421.94 196.444 421.94C188.211 421.94 181.459 418.811 176.19 412.554C171.085 406.132 168.533 396.416 168.533 383.408V302.639L151.243 300.416C150.914 298.769 150.749 297.369 150.749 296.217C150.749 294.899 150.914 293.088 151.243 290.783C155.854 289.959 159.806 288.56 163.099 286.584C166.557 284.443 169.439 281.561 171.744 277.939C174.049 274.151 175.778 270.858 176.931 268.059C178.248 265.095 179.813 260.896 181.624 255.462C183.106 254.968 184.917 254.721 187.058 254.721C189.034 254.721 190.763 254.968 192.245 255.462ZM393.977 300.663C407.644 286.995 422.546 280.162 438.684 280.162C454.656 280.162 467.089 286.172 475.981 298.193C485.037 310.213 489.566 326.433 489.566 346.852C489.566 370.07 483.308 388.43 470.794 401.933C458.279 415.271 442.718 421.94 424.111 421.94C407.973 421.94 395.294 416.176 386.073 404.65L380.886 421.446C377.757 421.94 375.122 421.94 372.982 421.446L370.512 394.276V232.491L350.258 230.021C349.599 227.551 349.599 224.422 350.258 220.635C361.62 219.811 375.781 218.082 392.742 215.448C394.224 217.094 395.047 218.741 395.212 220.388C394.388 224.669 393.977 238.007 393.977 260.402V300.663ZM429.545 408.355C439.754 408.355 448.152 403.662 454.739 394.276C461.49 384.725 464.866 371.305 464.866 354.015C464.866 350.557 464.783 347.922 464.619 346.111C464.619 329.809 461.325 317.212 454.739 308.32C448.317 299.428 440.166 294.982 430.286 294.982C424.522 294.982 418.265 296.875 411.514 300.663C404.762 304.285 398.917 309.308 393.977 315.73V391.312C399.575 397.734 404.927 402.18 410.032 404.65C415.136 407.12 421.641 408.355 429.545 408.355ZM532.924 260.402V404.403L552.931 408.108C553.589 410.742 553.589 414.036 552.931 417.988C542.557 417.494 531.936 417.247 521.068 417.247C513.493 417.247 502.79 417.411 488.958 417.741C487.97 414.612 487.97 411.401 488.958 408.108L508.471 405.391C509.129 396.334 509.459 385.878 509.459 374.022V232.491L489.205 230.021C488.546 227.551 488.546 224.422 489.205 220.635C500.567 219.811 514.728 218.082 531.689 215.448C533.171 217.094 533.994 218.741 534.159 220.388C533.335 224.669 532.924 238.007 532.924 260.402ZM655.887 347.346H578.329C576.847 389.336 589.444 410.331 616.12 410.331C627.482 410.331 639.091 405.308 650.947 395.264C653.417 396.746 655.311 399.298 656.628 402.921C645.266 415.6 630.858 421.94 613.403 421.94C573.225 421.94 553.135 398.31 553.135 351.051C553.135 328.656 559.063 311.284 570.919 298.934C582.775 286.419 596.607 280.162 612.415 280.162C629.705 280.162 642.138 286.172 649.712 298.193C657.287 310.213 661.074 325.857 661.074 345.123C659.428 346.44 657.699 347.181 655.887 347.346ZM611.921 290.042C603.359 290.042 596.031 294.488 589.938 303.38C584.01 312.272 580.388 323.634 579.07 337.466H609.698C621.884 337.466 630.611 336.725 635.88 335.243C635.88 321.74 633.822 310.872 629.705 302.639C625.589 294.241 619.661 290.042 611.921 290.042Z" fill="black"/>
<path d="M332.314 403.953C332.314 403.953 337.501 392.518 338.243 389.103C338.984 385.687 338.243 378.856 338.243 378.856C338.243 378.856 334.241 385.687 331.573 389.103C328.905 392.518 326.089 395.934 319.864 398.607C313.639 401.28 298.52 412.714 298.52 412.714C298.52 412.714 301.485 403.656 302.226 402.022C302.967 400.389 306.524 393.409 306.524 393.409C306.524 393.409 303.412 394.894 300.744 398.161C298.076 401.428 295.408 406.18 295.408 406.18C295.408 406.18 297.779 397.864 298.52 395.637C299.261 393.409 302.967 386.133 302.967 386.133C302.967 386.133 297.186 387.766 291.999 393.706C286.811 399.646 283.254 409.299 283.254 409.299C283.254 409.299 283.106 401.577 285.033 396.528C286.959 391.479 289.183 387.618 289.183 387.618C289.183 387.618 283.254 388.36 273.916 398.607C264.579 408.853 259.688 424 259.688 424C259.688 424 261.022 409.299 261.763 405.438C262.504 401.577 266.061 390.885 266.061 390.885C266.061 390.885 261.763 391.924 259.688 393.706C257.613 395.488 252.87 400.834 252.87 400.834C252.87 400.834 253.907 395.488 256.13 392.518C258.354 389.548 263.986 383.608 263.986 383.608C263.986 383.608 258.729 385.308 253.462 389.103C249.508 391.952 246.031 396.018 245.459 396.528C244.125 397.716 239.678 405.141 239.085 406.032C238.493 406.923 233.898 416.872 233.898 416.872C233.898 416.872 234.342 409.596 234.787 408.111C235.232 406.626 235.676 404.398 236.862 401.577C238.048 398.755 241.902 391.182 243.532 389.103C245.162 387.024 271.397 351.978 271.397 351.978V344.404L266.209 343.959L260.725 349.008C260.725 349.008 259.984 353.76 259.243 355.839C258.502 357.918 254.945 361.482 254.945 361.482C254.945 361.482 252.277 363.858 248.72 363.561C245.162 363.264 245.459 361.185 244.866 360.888C244.273 360.591 243.087 360.591 242.05 360.294C241.012 359.997 237.603 357.918 236.566 357.175C235.528 356.433 233.305 353.908 232.564 352.275C231.823 350.641 232.119 347.671 232.119 347.671C232.119 347.671 232.119 343.216 231.675 342.771C231.23 342.325 228.858 342.028 229.007 340.543C229.155 339.058 230.341 336.682 231.23 335.494C232.119 334.306 235.528 331.485 235.528 331.485C235.528 331.485 241.457 326.436 242.494 325.545C243.532 324.654 255.982 311.289 256.13 310.992C256.279 310.695 255.834 309.21 256.13 308.468C256.427 307.725 264.32 300.539 268.284 296.439C268.284 296.439 265.764 295.103 264.727 293.915C263.689 292.727 263.689 290.351 263.689 290.351C263.689 290.351 260.577 288.123 258.354 285.896C256.13 283.668 255.241 280.55 255.241 280.55C255.241 280.55 257.909 283.074 260.132 284.114C262.355 285.153 265.172 285.153 265.172 285.153L267.098 284.114L264.134 279.213L262.504 274.461L269.618 280.55C273.372 278.38 276.288 275.352 279.252 273.867C282.217 272.382 289.183 269.858 297.483 270.006C305.783 270.155 311.86 272.085 311.86 272.085C311.86 272.085 305.19 272.234 302.374 272.531C299.558 272.828 294.963 274.313 292.888 275.352C290.813 276.392 285.626 280.55 285.626 280.55C285.626 280.55 291.999 279.213 294.519 279.213C297.038 279.213 304.449 279.807 307.858 280.55C311.267 281.292 317.64 283.668 320.16 283.668C322.68 283.668 331.128 282.629 331.128 282.629L327.571 285.896C327.571 285.896 325.051 288.123 321.494 288.569C317.937 289.014 312.008 289.905 312.008 289.905C312.008 289.905 313.639 290.945 316.158 291.39C318.678 291.836 324.458 291.687 328.757 292.43C333.055 293.172 337.798 294.509 339.576 295.548C341.355 296.588 343.727 298.815 346.246 301.637C348.766 304.458 353.509 315.744 353.509 315.744C353.509 315.744 348.469 310.101 346.246 308.468C344.023 306.834 338.243 305.349 338.243 305.349C338.243 305.349 343.875 311.735 346.246 315.744C348.618 319.754 351.137 327.327 352.323 334.009C353.509 340.692 354.695 346.632 353.509 360.739C352.323 374.847 349.655 378.262 346.246 386.133C342.837 394.003 332.314 403.953 332.314 403.953Z" fill="black" stroke="black"/>
<path d="M273.027 308.468C274.361 307.725 273.916 305.349 273.916 305.349C273.916 305.349 276.14 307.28 274.657 309.359C273.175 311.438 269.766 311.141 269.766 311.141L270.063 308.765C270.063 308.765 271.693 309.21 273.027 308.468Z" fill="white" stroke="white"/>
<path d="M254.648 338.91L260.28 342.474L246.941 355.839L248.868 344.107L254.648 338.91Z" fill="white" stroke="white"/>
<path d="M277.177 288.123C279.252 289.757 281.179 293.024 281.179 293.024L280.29 296.439C280.29 296.439 275.695 293.915 274.361 292.578C273.027 291.242 271.248 285.302 271.248 285.302C271.248 285.302 275.102 286.49 277.177 288.123Z" fill="white" stroke="white"/>
<path d="M275.547 316.041C275.928 315.15 281.179 309.21 281.179 309.21C281.179 309.21 280.734 310.844 280.734 311.289C280.734 311.735 277.474 315.447 277.029 316.932C276.584 318.417 277.77 320.645 277.77 320.645L277.474 328.07C277.474 328.07 275.166 316.932 275.547 316.041Z" fill="white" stroke="white" stroke-width="0.5" stroke-linecap="round"/>
<path d="M269.47 315.893C270.656 316.487 271.1 318.863 271.1 318.863C271.397 317.526 270.507 314.853 270.507 314.853C270.507 314.853 267.839 314.259 266.209 314.853C266.209 314.853 268.284 315.299 269.47 315.893Z" fill="white" stroke="white" stroke-linecap="round"/>
<path d="M240.716 340.246C241.309 340.84 241.309 343.81 241.309 343.81L243.235 341.88C243.235 341.88 242.71 339.801 241.309 338.613C239.907 337.425 238.344 338.167 238.344 338.167L237.9 340.543C237.9 340.543 240.123 339.652 240.716 340.246Z" fill="white" stroke="white" stroke-linecap="round"/>
<path d="M270.063 280.401C270.063 280.401 276.584 282.629 278.066 283.371C279.549 284.114 283.995 287.975 284.884 288.272C285.774 288.569 288.145 288.123 290.517 288.717C292.888 289.311 296.742 291.39 300.299 293.766C303.856 296.142 310.822 304.458 311.267 304.31C311.712 304.161 309.488 297.033 309.933 296.885C310.378 296.736 315.417 305.646 317.196 309.656C318.974 313.665 321.642 326.881 322.087 327.03C322.532 327.178 323.717 317.823 324.162 317.823C324.607 317.823 327.126 327.624 326.089 334.752C325.051 341.88 319.271 351.087 319.567 351.532C319.864 351.978 326.237 347.226 326.533 347.82C326.83 348.414 323.717 355.69 320.16 359.106C316.603 362.521 309.637 368.016 309.637 368.016C309.637 368.016 300.744 374.995 298.52 376.777C296.297 378.559 289.035 387.618 289.035 387.618" stroke="white" stroke-width="5" stroke-linecap="round"/>
<path d="M329.349 360.591C329.349 360.591 333.132 353.784 335.13 345.592C337.134 337.376 337.798 327.03 337.205 326.733C336.612 326.436 333.796 333.712 333.5 333.415C333.203 333.118 335.278 318.863 334.982 316.635C334.685 314.408 331.573 304.31 330.832 304.31C330.091 304.31 331.395 313.901 331.276 313.962C331.213 313.995 330.039 310.912 328.016 307.428C326.233 304.359 322.985 301.144 322.828 301.043" stroke="white" stroke-width="3" stroke-linecap="round"/>
<path d="M305.042 318.12C305.487 320.348 305.635 331.485 306.376 331.485C307.117 331.485 308.303 323.911 308.896 323.911C309.488 323.911 310.081 331.485 309.192 334.009C308.303 336.534 301.485 344.404 301.188 344.256C300.892 344.107 302.967 337.722 303.115 336.088C303.263 334.455 302.819 330.148 302.522 330.148C302.226 330.148 298.076 339.652 297.335 340.989C296.594 342.325 292.592 345.592 291.406 346.038C290.22 346.483 279.845 349.453 278.511 350.344C277.177 351.235 270.063 363.561 267.839 366.234C265.616 368.907 256.13 379.153 256.13 379.153C256.13 379.153 244.273 391.33 241.902 395.34C239.53 399.349 234.342 410.487 233.601 410.487C232.86 410.487 236.862 399.795 239.53 394.597C242.198 389.4 250.498 378.708 251.98 377.074C253.462 375.441 268.791 355.328 269.766 353.463C271.397 350.344 271.693 344.85 271.693 344.85C271.693 344.85 280.586 344.107 281.92 343.662C283.254 343.216 289.183 341.137 291.406 339.652C293.629 338.167 298.076 331.485 298.52 330.148C298.965 328.812 298.965 323.021 299.261 321.536C299.558 320.051 300.744 316.338 300.744 315.447C300.744 314.556 295.408 307.874 295.704 307.577C296.001 307.28 301.188 312.477 301.188 312.477C301.188 312.477 301.188 309.953 301.633 309.953C302.078 309.953 304.597 315.893 305.042 318.12Z" fill="white" stroke="white" stroke-width="3" stroke-linecap="round"/>
<path d="M322.235 387.469C322.235 387.469 330.98 377.223 332.758 374.253C334.537 371.283 338.835 362.224 339.576 358.957C340.318 355.69 342.096 345.889 342.096 345.889C342.096 345.889 343.578 350.196 343.875 351.532C344.171 352.869 344.912 358.957 344.912 358.957C344.912 358.957 348.469 345.147 349.062 339.801C349.655 334.455 348.914 321.09 348.914 321.09C348.914 321.09 348.914 319.754 346.543 315.893C344.171 312.032 342.541 310.25 342.541 310.25C342.541 310.25 344.723 316.83 345.95 323.763C346.711 328.065 347.101 333.04 346.987 335.94C346.691 343.513 345.357 348.562 345.357 348.562C345.357 348.562 343.727 344.553 342.985 343.216C342.244 341.88 340.614 339.504 340.614 339.504C340.614 339.504 339.428 347.671 338.835 351.532C338.243 355.393 337.205 359.106 336.316 361.779C335.426 364.452 333.203 369.352 330.98 372.916C328.757 376.48 324.903 381.084 324.903 381.084L324.014 370.243C324.014 370.243 306.969 381.975 304.301 384.351C302.877 385.619 300.743 389.7 299.41 392.815C298.244 395.538 297.779 397.419 297.779 397.419C297.779 397.419 303.708 387.321 306.672 384.945C309.637 382.569 322.532 373.51 322.532 373.51L322.235 387.469Z" fill="white"/>
<path d="M244.816 512.792C245.904 513.496 246.736 514.712 247.312 516.44C238.416 524.76 229.392 528.92 220.24 528.92C213.968 528.92 208.496 527.8 203.824 525.56C199.152 523.256 195.28 520.248 192.208 516.536C189.136 512.76 186.832 508.504 185.296 503.768C183.824 498.968 183.088 494.072 183.088 489.08C183.088 484.024 183.952 479.096 185.68 474.296C187.408 469.432 189.936 465.112 193.264 461.336C196.592 457.496 200.688 454.424 205.552 452.12C210.48 449.816 216.08 448.664 222.352 448.664C230.608 448.664 238.288 450.584 245.392 454.424V472.856C244.24 473.048 243.216 473.144 242.32 473.144C241.36 473.144 240.56 473.048 239.92 472.856L236.848 456.824C232.944 454.264 227.728 452.984 221.2 452.984C217.168 452.984 213.52 453.912 210.256 455.768C207.056 457.56 204.304 460.024 202 463.16C199.76 466.232 198.032 469.88 196.816 474.104C195.6 478.264 194.992 482.712 194.992 487.448C194.992 492.504 195.568 497.176 196.72 501.464C197.936 505.752 199.632 509.464 201.808 512.6C203.984 515.736 206.608 518.2 209.68 519.992C212.816 521.72 216.304 522.584 220.144 522.584C224.752 522.584 229.2 521.688 233.488 519.896C237.776 518.104 241.552 515.736 244.816 512.792ZM270.615 527L256.887 527.288C256.503 526.136 256.503 524.984 256.887 523.832L264.855 522.776C265.111 519.512 265.239 515.736 265.239 511.448V454.808L257.463 453.848C257.207 452.888 257.207 451.704 257.463 450.296C260.983 450.552 265.367 450.68 270.615 450.68C275.287 450.68 279.703 450.584 283.863 450.392C284.247 451.544 284.247 452.696 283.863 453.848L275.895 455C275.639 457.432 275.511 461.176 275.511 466.232V522.104H307.191L311.703 504.728C312.663 504.472 313.847 504.472 315.255 504.728L315.159 527H270.615ZM379.954 502.616V454.808L372.178 453.848V450.296C375.698 450.552 378.93 450.68 381.874 450.68C384.306 450.68 387.57 450.584 391.666 450.392V453.848L385.618 455C385.362 457.432 385.234 461.176 385.234 466.232V502.04C384.978 511.128 382.834 517.88 378.802 522.296C374.77 526.712 367.698 528.92 357.586 528.92C338.514 528.92 328.978 520.248 328.978 502.904V454.808L321.202 453.848C320.946 452.888 320.946 451.704 321.202 450.296C324.722 450.552 329.106 450.68 334.354 450.68C339.026 450.68 343.442 450.584 347.602 450.392C347.986 451.544 347.986 452.696 347.602 453.848L339.634 455C339.378 457.432 339.25 461.176 339.25 466.232V502.904C339.25 510.072 340.914 515.192 344.242 518.264C347.57 521.272 353.074 522.776 360.754 522.776C367.986 522.776 372.978 521.208 375.73 518.072C378.546 514.872 379.954 509.72 379.954 502.616ZM402.75 450.296C406.014 450.296 410.718 450.168 416.862 449.912C423.006 449.656 427.07 449.528 429.054 449.528H431.646C440.03 449.528 446.27 451.256 450.366 454.712C454.462 458.104 456.51 462.584 456.51 468.152C456.51 476.088 451.326 481.592 440.958 484.664V484.952C446.974 485.848 451.71 488.216 455.166 492.056C458.686 495.832 460.446 500.376 460.446 505.688C460.446 512.792 458.014 518.328 453.15 522.296C448.35 526.264 441.278 528.248 431.934 528.248C429.374 528.248 425.214 528.024 419.454 527.576C413.758 527.192 409.214 527 405.822 527C405.438 527 404.83 527 403.998 527C403.166 527.064 402.558 527.096 402.174 527.096C401.79 525.944 401.79 524.792 402.174 523.64L410.142 522.584C410.398 520.152 410.526 516.408 410.526 511.352V454.808L402.75 453.848C402.494 452.888 402.494 451.704 402.75 450.296ZM428.478 488.024H420.798V522.776C424.062 523.352 426.654 523.704 428.574 523.832C436.318 523.832 441.662 522.392 444.606 519.512C447.55 516.568 449.022 511.992 449.022 505.784C449.022 500.792 447.198 496.6 443.55 493.208C439.966 489.752 434.942 488.024 428.478 488.024ZM429.15 453.56C425.95 453.56 423.294 453.784 421.182 454.232C420.926 456.664 420.798 460.664 420.798 466.232V483.224H428.286C434.238 483.224 438.558 482.008 441.246 479.576C443.998 477.144 445.374 473.528 445.374 468.728C445.374 463.864 443.87 460.12 440.862 457.496C437.918 454.872 434.014 453.56 429.15 453.56Z" fill="black"/>
<rect x="12" y="470" width="153" height="10" fill="black"/>
<rect x="12" y="495" width="153" height="12" fill="black"/>
<rect x="484" y="470" width="153" height="10" fill="black"/>
<rect x="484" y="495" width="153" height="12" fill="black"/>
</svg>
